<svg width="17" height="16" viewBox="0 0 17 16" fill="none" xmlns="http://www.w3.org/2000/svg">
<path d="M8.61611 6.66667C8.53859 6.65375 8.44816 6.65375 8.37064 6.66667C6.58769 6.60207 5.1665 5.14212 5.1665 3.33333C5.1665 1.48579 6.65229 0 8.49983 0C10.3474 0 11.8332 1.49871 11.8332 3.33333C11.8203 5.14212 10.3991 6.61499 8.61611 6.66667Z" fill="#18181C"/>
<path d="M4.58805 8.60301C2.69265 10.1018 2.69265 12.5572 4.58805 14.0559C6.73886 15.762 10.2608 15.762 12.4116 14.0559C14.307 12.5572 14.307 10.1018 12.4116 8.60301C10.2743 6.91293 6.73886 6.91293 4.58805 8.60301Z" fill="#18181C"/>
</svg>
