<svg width="11" height="16" viewBox="0 0 11 16" fill="none" xmlns="http://www.w3.org/2000/svg">
<path d="M5.61617 6.66667C5.53866 6.65375 5.44822 6.65375 5.3707 6.66667C3.58775 6.60207 2.16656 5.14212 2.16656 3.33333C2.16656 1.48579 3.65235 0 5.4999 0C7.34744 0 8.83323 1.49871 8.83323 3.33333C8.82031 5.14212 7.39912 6.61499 5.61617 6.66667Z" fill="#18181C"/>
<path d="M1.58812 8.60301C-0.307285 10.1018 -0.307285 12.5572 1.58812 14.0559C3.73892 15.762 7.26087 15.762 9.41168 14.0559C11.3071 12.5572 11.3071 10.1018 9.41168 8.60301C7.27432 6.91293 3.73892 6.91293 1.58812 8.60301Z" fill="#18181C"/>
</svg>
