<svg width="406" height="88" viewBox="0 0 406 88" fill="none" xmlns="http://www.w3.org/2000/svg">
<ellipse cx="198.508" cy="44" rx="44.0133" ry="44" fill="#E2F1F4" fill-opacity="0.5"/>
<path d="M220.108 25.2588L227 37.3614L225.907 51.6371L218.997 64.8723L200.915 72.5L188.675 70.4579L178.527 63.7843L171 48.6524L172.306 37.3947L179.638 24.1709L199.32 16.5L211.622 19.4559L220.108 25.2588Z" fill="#54CD84"/>
<path d="M195.107 55.7459L186.164 50.6107L190.897 45.9738L195.107 50.6107L206.672 33.6088L210.616 38.2458L195.107 55.7459Z" fill="white"/>
<ellipse opacity="0.2" cx="328.753" cy="19.7569" rx="8.98231" ry="8.97959" fill="#808B9A"/>
<ellipse opacity="0.2" cx="8.98231" cy="25.1437" rx="8.98231" ry="8.97959" fill="#808B9A"/>
<ellipse opacity="0.2" cx="357.497" cy="80.8135" rx="5.38939" ry="5.38776" fill="#54CD84"/>
<ellipse opacity="0.2" cx="80.8404" cy="30.5284" rx="5.38939" ry="5.38776" fill="#54CD84"/>
<ellipse opacity="0.2" cx="276.655" cy="55.6739" rx="3.59292" ry="3.59184" fill="#54CD84"/>
<ellipse opacity="0.2" cx="61.0793" cy="77.2246" rx="3.59292" ry="3.59184" fill="#54CD84"/>
<ellipse opacity="0.2" cx="402.407" cy="43.0996" rx="3.59292" ry="3.59184" fill="#808B9A"/>
<ellipse opacity="0.2" cx="125.753" cy="53.877" rx="3.59292" ry="3.59184" fill="#808B9A"/>
</svg>
